<svg xmlns="http://www.w3.org/2000/svg" xmlns:v="https://svgstorm.com"
viewBox = "0 0 1600 1600"
width="1600"
height="1600">
<g fill="#2E2F2A" fill-opacity="1.00" stroke="None">
<path d="
M 0.00 1600.00 
L 1600.00 1600.00
L 1600.00 0.00
L 0.00 0.00
L 0.00 1600.00
M 833.00 453.00 
C 831.75 454.02 830.18 454.99 829.00 456.00
C 820.78 463.05 811.48 468.64 802.00 474.00
C 840.14 481.66 886.17 470.20 923.07 464.07 C 959.97 457.94 986.92 441.66 1017.00 421.00
C 1019.98 417.99 1024.84 413.02 1029.00 412.00
C 1036.78 410.10 1031.69 426.59 1030.02 432.02 C 1028.36 437.46 1021.74 444.81 1019.00 450.00
C 1010.78 465.57 1014.91 489.28 1023.31 503.70 C 1031.70 518.11 1041.13 529.88 1056.70 537.30 C 1072.26 544.73 1086.06 551.87 1103.67 556.33 C 1121.28 560.78 1143.82 563.68 1163.00 564.00 C 1182.19 564.32 1206.98 569.93 1226.00 564.00
C 1238.38 553.21 1249.28 540.59 1260.00 528.00
C 1261.57 528.96 1263.25 530.32 1264.00 532.00
C 1268.93 538.37 1266.58 550.99 1263.02 558.02 C 1259.47 565.06 1257.77 575.55 1252.00 581.00
C 1255.15 588.06 1249.99 599.94 1251.00 608.00 C 1252.01 616.06 1247.57 625.49 1248.07 634.07 C 1248.58 642.66 1247.72 653.22 1248.00 662.00 C 1248.28 670.78 1248.64 680.62 1250.00 689.00 C 1251.36 697.39 1251.83 705.81 1253.00 714.00 C 1254.17 722.19 1256.12 730.78 1257.33 738.67 C 1258.54 746.56 1260.75 753.87 1262.93 761.07 C 1265.10 768.28 1268.19 775.17 1271.31 781.70 C 1274.42 788.22 1277.55 794.47 1282.25 799.75 C 1286.96 805.03 1290.79 809.33 1295.75 814.25 C 1300.71 819.17 1306.62 822.87 1312.23 826.77 C 1317.84 830.68 1322.83 834.70 1328.75 838.25 C 1334.66 841.81 1340.88 845.85 1347.23 848.77 C 1353.58 851.70 1359.24 855.09 1365.23 858.77 C 1371.22 862.45 1377.51 865.88 1383.74 869.26 C 1389.97 872.63 1398.64 872.69 1403.00 879.00
C 1412.17 872.90 1418.34 868.09 1430.01 866.01 C 1441.68 863.93 1433.95 883.58 1427.25 889.25 C 1420.55 894.92 1413.05 903.45 1407.00 910.00
C 1390.80 930.52 1369.67 945.57 1351.00 963.00
C 1340.88 972.45 1329.83 978.39 1316.77 983.77 C 1303.71 989.15 1288.05 991.21 1274.32 996.32 C 1260.60 1001.43 1246.59 1006.17 1231.99 1009.99 C 1217.39 1013.81 1202.79 1018.62 1187.00 1020.00 C 1171.20 1021.38 1155.70 1027.57 1138.93 1026.93 C 1122.15 1026.28 1120.24 1042.61 1109.00 1053.00
C 1105.55 1052.25 1101.78 1050.32 1100.00 1047.00
C 1098.54 1046.12 1097.51 1044.69 1096.00 1044.00
C 1075.62 1082.86 1038.06 1113.00 1004.00 1140.00
C 970.19 1166.16 938.42 1185.21 899.75 1204.75 C 861.09 1224.30 827.26 1247.26 782.78 1257.78 C 738.30 1268.30 688.55 1277.41 640.98 1284.98 C 593.40 1292.54 528.94 1294.01 479.00 1291.00 C 429.06 1287.99 383.81 1279.23 339.00 1261.00
C 313.58 1254.21 287.83 1238.83 269.00 1220.00
C 264.07 1215.07 258.67 1210.63 255.00 1205.00
C 250.72 1198.43 247.46 1196.20 246.67 1187.33 C 245.88 1178.46 253.82 1182.91 259.00 1187.00
C 296.73 1216.78 332.78 1228.84 380.07 1236.93 C 427.36 1245.02 484.62 1238.73 528.07 1222.07 C 571.53 1205.42 605.70 1193.27 644.00 1167.00
C 652.06 1161.47 659.19 1156.30 666.00 1149.00
C 669.47 1141.50 666.61 1127.09 667.00 1119.00 C 667.39 1110.91 667.34 1098.78 662.00 1093.00
C 650.87 1083.49 670.97 1073.00 674.31 1062.30 C 677.64 1051.61 687.29 1037.86 688.78 1025.78 C 690.27 1013.70 691.95 992.28 683.70 982.31 C 675.44 972.33 660.21 965.39 647.93 968.93 C 635.64 972.46 623.74 979.09 612.77 985.77 C 601.80 992.45 589.91 996.79 578.32 1002.32 C 566.73 1007.85 555.85 1013.59 543.98 1018.98 C 532.10 1024.36 523.04 1029.93 512.25 1038.25 C 501.46 1046.57 490.21 1029.08 488.22 1017.78 C 486.24 1006.48 480.49 992.11 470.75 984.25 C 461.01 976.38 447.77 967.89 460.25 958.25 C 472.73 948.61 474.42 941.42 485.25 932.25 C 496.08 923.08 499.64 913.98 509.25 904.25 C 518.86 894.52 523.26 887.38 532.77 876.77 C 542.28 866.16 537.21 851.64 530.75 840.25 C 524.28 828.87 543.88 820.81 551.25 813.25 C 558.62 805.68 564.00 788.97 572.00 782.00
C 561.09 785.36 549.68 789.36 539.32 794.32 C 528.96 799.28 517.15 803.54 506.78 807.78 C 496.40 812.02 487.33 818.60 477.77 823.77 C 468.21 828.94 459.74 837.96 450.30 842.30 C 440.87 846.64 424.16 854.70 414.00 850.00
C 410.16 848.23 406.63 843.07 404.00 840.00
C 402.06 837.73 400.02 835.10 398.00 833.00
C 395.62 830.88 393.23 828.44 391.00 826.00
C 382.17 818.30 372.89 817.91 362.77 812.23 C 352.65 806.55 349.60 794.48 349.67 783.33 C 349.74 772.18 343.11 757.15 351.00 748.00
C 357.46 740.51 374.35 743.32 382.23 735.23 C 390.11 727.14 397.60 721.96 403.75 712.75 C 409.90 703.55 416.71 696.98 423.25 688.25 C 429.79 679.51 437.09 673.19 442.75 663.75 C 448.42 654.31 454.23 646.84 459.92 636.92 C 465.61 627.00 461.62 613.56 458.22 602.78 C 454.82 592.00 450.83 577.05 459.75 568.75 C 468.67 560.45 474.31 554.63 483.75 548.75 C 493.18 542.86 499.74 535.97 508.25 529.25 C 516.76 522.52 524.30 516.14 533.08 510.08 C 541.87 504.03 548.43 496.25 554.92 487.92 C 561.41 479.58 567.36 469.29 571.97 459.97 C 576.59 450.66 585.59 444.05 591.92 435.92 C 598.25 427.79 604.35 419.56 612.25 412.25 C 620.15 404.93 625.84 396.15 636.23 392.23 C 646.62 388.31 660.31 387.37 670.69 382.69 C 681.07 378.02 692.09 374.84 702.68 370.68 C 713.26 366.51 724.51 362.98 735.23 359.23 C 745.95 355.48 757.80 352.30 768.22 348.22 C 778.65 344.14 789.14 340.32 798.23 334.23 C 807.32 328.14 815.37 322.54 823.75 315.75 C 832.13 308.96 838.98 302.30 845.75 293.75 C 852.52 285.20 855.45 274.47 860.77 264.77 C 866.09 255.07 866.12 240.55 872.00 231.00
C 875.77 224.87 880.26 239.63 881.78 246.22 C 883.29 252.81 886.30 263.22 887.93 271.07 C 889.55 278.92 891.13 289.17 892.00 298.00 C 892.87 306.83 894.16 317.81 894.99 327.01 C 895.82 336.21 894.48 347.66 893.22 356.22 C 891.96 364.79 889.83 372.83 886.23 380.23 C 882.63 387.63 880.28 395.34 876.08 402.08 C 871.88 408.81 868.52 414.92 864.08 421.08 C 859.65 427.24 854.66 431.92 849.25 437.25 C 843.84 442.57 838.77 448.27 833.00 453.00 Z"/>
</g>
<g fill="#2F8375" fill-opacity="1.00" stroke="None">
<path d="
M 872.00 231.00 
C 872.57 230.33 873.08 229.38 874.00 229.00
C 886.95 267.07 896.56 318.80 890.22 359.22 C 883.88 399.64 860.38 424.34 833.00 453.00
C 838.77 448.27 843.84 442.57 849.25 437.25 C 854.66 431.92 859.65 427.24 864.08 421.08 C 868.52 414.92 871.88 408.81 876.08 402.08 C 880.28 395.34 882.63 387.63 886.23 380.23 C 889.83 372.83 891.96 364.79 893.22 356.22 C 894.48 347.66 895.82 336.21 894.99 327.01 C 894.16 317.81 892.87 306.83 892.00 298.00 C 891.13 289.17 889.55 278.92 887.93 271.07 C 886.30 263.22 883.29 252.81 881.78 246.22 C 880.26 239.63 875.77 224.87 872.00 231.00 Z"/>
</g>
<g fill="#28A691" fill-opacity="1.00" stroke="None">
<path d="
M 872.00 231.00 
C 866.12 240.55 866.09 255.07 860.77 264.77 C 855.45 274.47 852.52 285.20 845.75 293.75 C 838.98 302.30 832.13 308.96 823.75 315.75 C 815.37 322.54 807.32 328.14 798.23 334.23 C 789.14 340.32 778.65 344.14 768.22 348.22 C 757.80 352.30 745.95 355.48 735.23 359.23 C 724.51 362.98 713.26 366.51 702.68 370.68 C 692.09 374.84 681.07 378.02 670.69 382.69 C 660.31 387.37 646.62 388.31 636.23 392.23 C 625.84 396.15 620.15 404.93 612.25 412.25 C 604.35 419.56 598.25 427.79 591.92 435.92 C 585.59 444.05 576.59 450.66 571.97 459.97 C 567.36 469.29 561.41 479.58 554.92 487.92 C 548.43 496.25 541.87 504.03 533.08 510.08 C 524.30 516.14 516.76 522.52 508.25 529.25 C 499.74 535.97 493.18 542.86 483.75 548.75 C 474.31 554.63 468.67 560.45 459.75 568.75 C 450.83 577.05 454.82 592.00 458.22 602.78 C 461.62 613.56 465.61 627.00 459.92 636.92 C 454.23 646.84 448.42 654.31 442.75 663.75 C 437.09 673.19 429.79 679.51 423.25 688.25 C 416.71 696.98 409.90 703.55 403.75 712.75 C 397.60 721.96 390.11 727.14 382.23 735.23 C 374.35 743.32 357.46 740.51 351.00 748.00
C 346.24 758.29 352.01 774.85 352.00 785.00 C 351.98 795.15 354.76 808.26 365.08 811.92 C 375.40 815.58 383.51 817.82 391.00 826.00
C 393.23 828.44 395.62 830.88 398.00 833.00
C 408.05 841.94 414.64 851.04 428.02 847.02 C 441.41 843.01 452.42 841.47 462.70 832.70 C 472.97 823.93 481.00 820.49 491.70 813.70 C 502.39 806.90 513.64 802.72 525.22 798.22 C 536.81 793.73 547.26 788.03 559.07 784.07 C 570.89 780.11 582.90 774.23 595.00 771.00
C 602.33 769.04 610.16 768.00 618.00 768.00
C 621.24 767.69 624.76 767.54 628.00 768.00
C 637.87 768.38 647.06 771.52 656.02 774.98 C 664.99 778.43 671.75 782.38 680.70 786.31 C 689.64 790.23 694.27 795.28 704.08 798.92 C 713.88 802.57 714.57 812.57 716.78 822.22 C 718.98 831.87 722.08 840.18 724.93 850.07 C 727.78 859.96 726.11 873.28 727.00 884.00 C 727.89 894.72 724.30 906.38 723.22 916.22 C 722.14 926.07 717.38 938.25 724.77 946.23 C 732.16 954.21 744.44 944.80 752.00 943.00
C 752.00 944.67 752.00 946.33 752.00 948.00
C 752.57 952.73 751.38 958.06 751.00 962.00
C 751.00 1029.25 724.83 1082.89 682.00 1133.00
C 678.10 1137.56 672.78 1140.87 669.00 1145.00
C 668.19 1145.88 667.02 1147.91 666.00 1149.00
C 659.19 1156.30 652.06 1161.47 644.00 1167.00
C 618.37 1189.34 591.88 1200.19 559.93 1211.93 C 527.98 1223.66 495.48 1237.94 459.93 1241.93 C 424.37 1245.91 375.36 1240.94 341.98 1232.02 C 308.59 1223.11 283.39 1209.55 259.00 1187.00
C 253.82 1182.91 245.88 1178.46 246.67 1187.33 C 247.46 1196.20 250.72 1198.43 255.00 1205.00
C 259.26 1209.31 266.19 1215.66 269.00 1220.00
C 287.83 1238.83 313.58 1254.21 339.00 1261.00
C 385.93 1273.53 428.60 1287.26 479.00 1289.00 C 529.40 1290.74 591.92 1290.37 640.00 1283.00 C 688.08 1275.63 736.64 1265.30 782.02 1256.02 C 827.41 1246.75 858.11 1220.87 898.23 1203.23 C 938.35 1185.59 966.29 1160.13 1004.00 1140.00
C 1038.06 1113.00 1075.62 1082.86 1096.00 1044.00
C 1097.51 1044.69 1098.54 1046.12 1100.00 1047.00
C 1120.62 1059.37 1113.68 1028.42 1128.22 1025.22 C 1142.77 1022.03 1163.87 1022.21 1179.01 1019.01 C 1194.14 1015.81 1211.96 1014.17 1226.67 1009.67 C 1241.38 1005.18 1255.89 1001.36 1270.02 996.02 C 1284.16 990.69 1299.65 987.10 1313.68 982.68 C 1327.71 978.26 1339.03 970.80 1351.00 963.00
C 1369.67 945.57 1390.80 930.52 1407.00 910.00
C 1412.80 902.65 1418.62 896.05 1425.75 889.75 C 1432.88 883.45 1437.56 866.07 1424.93 869.93 C 1412.30 873.78 1410.25 877.86 1399.00 883.00
C 1369.85 896.33 1346.52 908.88 1315.77 920.77 C 1285.02 932.66 1241.07 935.59 1207.00 932.00 C 1172.92 928.41 1140.28 924.44 1112.77 904.23 C 1085.26 884.02 1076.16 853.66 1072.67 822.33 C 1069.18 791.00 1041.70 772.19 1026.00 747.00
C 1073.11 738.73 1127.30 723.58 1161.25 687.25 C 1195.19 650.91 1224.46 621.42 1250.00 581.00
C 1253.98 574.08 1258.40 567.14 1260.32 559.32 C 1262.24 551.51 1267.79 540.20 1264.00 532.00
C 1263.25 530.32 1261.57 528.96 1260.00 528.00
C 1249.28 540.59 1238.38 553.21 1226.00 564.00
C 1206.93 580.62 1188.35 592.51 1166.25 606.25 C 1144.16 619.99 1124.69 633.73 1098.99 641.99 C 1073.30 650.25 1038.38 654.48 1011.00 657.00 C 983.62 659.52 945.61 663.46 930.75 639.25 C 915.89 615.04 900.55 602.75 878.75 588.25 C 856.96 573.75 830.08 571.37 822.00 542.00
C 894.60 546.17 965.40 511.34 1012.00 456.00
C 1014.69 452.16 1019.06 448.16 1021.25 444.25 C 1023.45 440.35 1028.05 433.76 1028.78 429.78 C 1029.50 425.79 1034.11 413.67 1029.00 412.00
C 1024.84 413.02 1019.98 417.99 1017.00 421.00
C 999.93 438.24 981.25 445.86 958.93 455.93 C 936.60 465.99 907.43 469.57 882.00 473.00 C 856.57 476.43 823.61 483.94 798.00 475.00
C 807.95 468.65 818.84 462.21 829.00 456.00
C 830.18 454.99 831.75 454.02 833.00 453.00
C 860.38 424.34 883.88 399.64 890.22 359.22 C 896.56 318.80 886.95 267.07 874.00 229.00
C 873.08 229.38 872.57 230.33 872.00 231.00
M 593.00 571.00 
C 589.35 579.21 583.89 585.27 579.23 593.23 C 574.57 601.19 568.09 605.87 563.25 614.25 C 558.41 622.63 551.47 625.24 547.23 635.23 C 542.99 645.22 534.59 637.64 527.92 631.08 C 521.25 624.52 513.69 620.48 509.00 613.00
C 539.87 606.27 567.79 590.27 593.00 571.00 Z"/>
</g>
<g fill="#2F8376" fill-opacity="1.00" stroke="None">
<path d="
M 1029.00 412.00 
C 1034.11 413.67 1029.50 425.79 1028.78 429.78 C 1028.05 433.76 1023.45 440.35 1021.25 444.25 C 1019.06 448.16 1014.69 452.16 1012.00 456.00
C 1013.81 453.80 1017.21 452.13 1019.00 450.00
C 1021.74 444.81 1028.36 437.46 1030.02 432.02 C 1031.69 426.59 1036.78 410.10 1029.00 412.00 Z"/>
</g>
<g fill="#2F8577" fill-opacity="1.00" stroke="None">
<path d="
M 829.00 456.00 
C 818.84 462.21 807.95 468.65 798.00 475.00
C 823.61 483.94 856.57 476.43 882.00 473.00 C 907.43 469.57 936.60 465.99 958.93 455.93 C 981.25 445.86 999.93 438.24 1017.00 421.00
C 986.92 441.66 959.97 457.94 923.07 464.07 C 886.17 470.20 840.14 481.66 802.00 474.00
C 811.48 468.64 820.78 463.05 829.00 456.00 Z"/>
</g>
<g fill="#3E5E59" fill-opacity="1.00" stroke="None">
<path d="
M 1012.00 456.00 
C 965.40 511.34 894.60 546.17 822.00 542.00
C 830.08 571.37 856.96 573.75 878.75 588.25 C 900.55 602.75 915.89 615.04 930.75 639.25 C 945.61 663.46 983.62 659.52 1011.00 657.00 C 1038.38 654.48 1073.30 650.25 1098.99 641.99 C 1124.69 633.73 1144.16 619.99 1166.25 606.25 C 1188.35 592.51 1206.93 580.62 1226.00 564.00
C 1206.98 569.93 1182.19 564.32 1163.00 564.00 C 1143.82 563.68 1121.28 560.78 1103.67 556.33 C 1086.06 551.87 1072.26 544.73 1056.70 537.30 C 1041.13 529.88 1031.70 518.11 1023.31 503.70 C 1014.91 489.28 1010.78 465.57 1019.00 450.00
C 1017.21 452.13 1013.81 453.80 1012.00 456.00 Z"/>
</g>
<g fill="#2F8375" fill-opacity="1.00" stroke="None">
<path d="
M 1250.00 581.00 
C 1250.27 580.75 1251.74 581.25 1252.00 581.00
C 1257.77 575.55 1259.47 565.06 1263.02 558.02 C 1266.58 550.99 1268.93 538.37 1264.00 532.00
C 1267.79 540.20 1262.24 551.51 1260.32 559.32 C 1258.40 567.14 1253.98 574.08 1250.00 581.00 Z"/>
</g>
<g fill="#35423A" fill-opacity="1.00" stroke="None">
<path d="
M 593.00 571.00 
C 567.79 590.27 539.87 606.27 509.00 613.00
C 513.69 620.48 521.25 624.52 527.92 631.08 C 534.59 637.64 542.99 645.22 547.23 635.23 C 551.47 625.24 558.41 622.63 563.25 614.25 C 568.09 605.87 574.57 601.19 579.23 593.23 C 583.89 585.27 589.35 579.21 593.00 571.00 Z"/>
</g>
<g fill="#3F5E59" fill-opacity="1.00" stroke="None">
<path d="
M 1399.00 883.00 
C 1400.41 882.00 1401.45 880.03 1403.00 879.00
C 1398.64 872.69 1389.97 872.63 1383.74 869.26 C 1377.51 865.88 1371.22 862.45 1365.23 858.77 C 1359.24 855.09 1353.58 851.70 1347.23 848.77 C 1340.88 845.85 1334.66 841.81 1328.75 838.25 C 1322.83 834.70 1317.84 830.68 1312.23 826.77 C 1306.62 822.87 1300.71 819.17 1295.75 814.25 C 1290.79 809.33 1286.96 805.03 1282.25 799.75 C 1277.55 794.47 1274.42 788.22 1271.31 781.70 C 1268.19 775.17 1265.10 768.28 1262.93 761.07 C 1260.75 753.87 1258.54 746.56 1257.33 738.67 C 1256.12 730.78 1254.17 722.19 1253.00 714.00 C 1251.83 705.81 1251.36 697.39 1250.00 689.00 C 1248.64 680.62 1248.28 670.78 1248.00 662.00 C 1247.72 653.22 1248.58 642.66 1248.07 634.07 C 1247.57 625.49 1252.01 616.06 1251.00 608.00 C 1249.99 599.94 1255.15 588.06 1252.00 581.00
C 1251.74 581.25 1250.27 580.75 1250.00 581.00
C 1224.46 621.42 1195.19 650.91 1161.25 687.25 C 1127.30 723.58 1073.11 738.73 1026.00 747.00
C 1041.70 772.19 1069.18 791.00 1072.67 822.33 C 1076.16 853.66 1085.26 884.02 1112.77 904.23 C 1140.28 924.44 1172.92 928.41 1207.00 932.00 C 1241.07 935.59 1285.02 932.66 1315.77 920.77 C 1346.52 908.88 1369.85 896.33 1399.00 883.00 Z"/>
</g>
<g fill="#2F8476" fill-opacity="1.00" stroke="None">
<path d="
M 391.00 826.00 
C 383.51 817.82 375.40 815.58 365.08 811.92 C 354.76 808.26 351.98 795.15 352.00 785.00 C 352.01 774.85 346.24 758.29 351.00 748.00
C 343.11 757.15 349.74 772.18 349.67 783.33 C 349.60 794.48 352.65 806.55 362.77 812.23 C 372.89 817.91 382.17 818.30 391.00 826.00 Z"/>
</g>
<g fill="#276C60" fill-opacity="1.00" stroke="None">
<path d="
M 618.00 768.00 
C 621.32 768.00 624.68 767.87 628.00 768.00
C 624.76 767.54 621.24 767.69 618.00 768.00 Z"/>
</g>
<g fill="#253734" fill-opacity="1.00" stroke="None">
<path d="
M 595.00 771.00 
C 589.97 773.10 584.49 776.74 579.00 779.00
C 572.10 784.39 569.80 794.87 564.23 801.23 C 558.66 807.59 555.17 816.69 547.75 821.75 C 540.34 826.82 529.96 832.50 535.30 840.70 C 540.64 848.90 544.96 860.36 542.07 869.07 C 539.19 877.79 531.87 883.67 526.75 890.75 C 521.64 897.83 513.99 904.27 509.25 911.25 C 504.50 918.22 496.99 924.72 491.75 930.75 C 486.52 936.78 477.12 943.74 473.75 949.75 C 470.38 955.76 453.78 963.66 458.26 969.74 C 462.73 975.83 473.63 979.50 477.92 987.08 C 482.20 994.67 489.34 1003.10 490.33 1011.67 C 491.32 1020.25 496.05 1032.61 503.75 1036.25 C 511.45 1039.89 517.73 1027.84 525.75 1024.75 C 533.76 1021.65 542.58 1015.17 551.08 1012.08 C 559.57 1008.98 567.20 1002.97 575.74 999.74 C 584.29 996.52 592.51 991.53 601.08 988.08 C 609.65 984.63 616.57 977.93 625.23 974.23 C 633.89 970.53 642.47 965.92 652.07 964.07 C 661.68 962.22 670.98 968.97 679.25 973.75 C 687.51 978.54 691.49 988.50 692.93 998.07 C 694.37 1007.65 694.12 1021.59 691.07 1031.07 C 688.02 1040.55 684.75 1048.41 680.68 1057.68 C 676.61 1066.94 672.60 1072.42 665.70 1080.70 C 658.80 1088.98 671.53 1094.13 671.00 1105.00 C 670.47 1115.87 673.52 1129.74 673.00 1141.00
C 676.45 1138.95 678.58 1135.00 682.00 1133.00
C 724.83 1082.89 751.00 1029.25 751.00 962.00
C 751.00 957.58 752.09 951.57 752.00 948.00
C 752.00 946.33 752.00 944.67 752.00 943.00
C 744.44 944.80 732.16 954.21 724.77 946.23 C 717.38 938.25 722.14 926.07 723.22 916.22 C 724.30 906.38 727.89 894.72 727.00 884.00 C 726.11 873.28 727.78 859.96 724.93 850.07 C 722.08 840.18 718.98 831.87 716.78 822.22 C 714.57 812.57 713.88 802.57 704.08 798.92 C 694.27 795.28 689.64 790.23 680.70 786.31 C 671.75 782.38 664.99 778.43 656.02 774.98 C 647.06 771.52 637.87 768.38 628.00 768.00
C 624.68 767.87 621.32 768.00 618.00 768.00
C 610.16 768.00 602.33 769.04 595.00 771.00
M 641.00 807.00 
C 636.66 815.60 628.61 823.28 624.08 832.08 C 619.55 840.87 612.86 850.02 608.70 858.70 C 604.54 867.38 597.58 881.99 590.75 871.25 C 583.92 860.51 578.14 856.61 573.00 846.00
C 595.56 833.80 617.45 817.17 641.00 807.00 Z"/>
</g>
<g fill="#2F8476" fill-opacity="1.00" stroke="None">
<path d="
M 398.00 833.00 
C 400.02 835.10 402.06 837.73 404.00 840.00
C 406.57 842.57 411.05 848.37 414.00 850.00
C 424.16 854.70 440.87 846.64 450.30 842.30 C 459.74 837.96 468.21 828.94 477.77 823.77 C 487.33 818.60 496.40 812.02 506.78 807.78 C 517.15 803.54 528.96 799.28 539.32 794.32 C 549.68 789.36 561.09 785.36 572.00 782.00
C 573.94 781.40 576.83 779.90 579.00 779.00
C 584.49 776.74 589.97 773.10 595.00 771.00
C 582.90 774.23 570.89 780.11 559.07 784.07 C 547.26 788.03 536.81 793.73 525.22 798.22 C 513.64 802.72 502.39 806.90 491.70 813.70 C 481.00 820.49 472.97 823.93 462.70 832.70 C 452.42 841.47 441.41 843.01 428.02 847.02 C 414.64 851.04 408.05 841.94 398.00 833.00 Z"/>
</g>
<g fill="#3C5955" fill-opacity="1.00" stroke="None">
<path d="
M 572.00 782.00 
C 564.00 788.97 558.62 805.68 551.25 813.25 C 543.88 820.81 524.28 828.87 530.75 840.25 C 537.21 851.64 542.28 866.16 532.77 876.77 C 523.26 887.38 518.86 894.52 509.25 904.25 C 499.64 913.98 496.08 923.08 485.25 932.25 C 474.42 941.42 472.73 948.61 460.25 958.25 C 447.77 967.89 461.01 976.38 470.75 984.25 C 480.49 992.11 486.24 1006.48 488.22 1017.78 C 490.21 1029.08 501.46 1046.57 512.25 1038.25 C 523.04 1029.93 532.10 1024.36 543.98 1018.98 C 555.85 1013.59 566.73 1007.85 578.32 1002.32 C 589.91 996.79 601.80 992.45 612.77 985.77 C 623.74 979.09 635.64 972.46 647.93 968.93 C 660.21 965.39 675.44 972.33 683.70 982.31 C 691.95 992.28 690.27 1013.70 688.78 1025.78 C 687.29 1037.86 677.64 1051.61 674.31 1062.30 C 670.97 1073.00 650.87 1083.49 662.00 1093.00
C 668.38 1098.45 669.83 1107.45 669.00 1116.00 C 668.17 1124.56 671.95 1137.12 669.00 1145.00
C 672.78 1140.87 678.10 1137.56 682.00 1133.00
C 678.58 1135.00 676.45 1138.95 673.00 1141.00
C 673.52 1129.74 670.47 1115.87 671.00 1105.00 C 671.53 1094.13 658.80 1088.98 665.70 1080.70 C 672.60 1072.42 676.61 1066.94 680.68 1057.68 C 684.75 1048.41 688.02 1040.55 691.07 1031.07 C 694.12 1021.59 694.37 1007.65 692.93 998.07 C 691.49 988.50 687.51 978.54 679.25 973.75 C 670.98 968.97 661.68 962.22 652.07 964.07 C 642.47 965.92 633.89 970.53 625.23 974.23 C 616.57 977.93 609.65 984.63 601.08 988.08 C 592.51 991.53 584.29 996.52 575.74 999.74 C 567.20 1002.97 559.57 1008.98 551.08 1012.08 C 542.58 1015.17 533.76 1021.65 525.75 1024.75 C 517.73 1027.84 511.45 1039.89 503.75 1036.25 C 496.05 1032.61 491.32 1020.25 490.33 1011.67 C 489.34 1003.10 482.20 994.67 477.92 987.08 C 473.63 979.50 462.73 975.83 458.26 969.74 C 453.78 963.66 470.38 955.76 473.75 949.75 C 477.12 943.74 486.52 936.78 491.75 930.75 C 496.99 924.72 504.50 918.22 509.25 911.25 C 513.99 904.27 521.64 897.83 526.75 890.75 C 531.87 883.67 539.19 877.79 542.07 869.07 C 544.96 860.36 540.64 848.90 535.30 840.70 C 529.96 832.50 540.34 826.82 547.75 821.75 C 555.17 816.69 558.66 807.59 564.23 801.23 C 569.80 794.87 572.10 784.39 579.00 779.00
C 576.83 779.90 573.94 781.40 572.00 782.00 Z"/>
</g>
<g fill="#28A590" fill-opacity="1.00" stroke="None">
<path d="
M 641.00 807.00 
C 617.45 817.17 595.56 833.80 573.00 846.00
C 578.14 856.61 583.92 860.51 590.75 871.25 C 597.58 881.99 604.54 867.38 608.70 858.70 C 612.86 850.02 619.55 840.87 624.08 832.08 C 628.61 823.28 636.66 815.60 641.00 807.00 Z"/>
</g>
<g fill="#2C594F" fill-opacity="1.00" stroke="None">
<path d="
M 414.00 850.00 
C 411.05 848.37 406.57 842.57 404.00 840.00
C 406.63 843.07 410.16 848.23 414.00 850.00 Z"/>
</g>
<g fill="#2F8476" fill-opacity="1.00" stroke="None">
<path d="
M 1403.00 879.00 
C 1401.45 880.03 1400.41 882.00 1399.00 883.00
C 1410.25 877.86 1412.30 873.78 1424.93 869.93 C 1437.56 866.07 1432.88 883.45 1425.75 889.75 C 1418.62 896.05 1412.80 902.65 1407.00 910.00
C 1413.05 903.45 1420.55 894.92 1427.25 889.25 C 1433.95 883.58 1441.68 863.93 1430.01 866.01 C 1418.34 868.09 1412.17 872.90 1403.00 879.00 Z"/>
</g>
<g fill="#286D62" fill-opacity="1.00" stroke="None">
<path d="
M 751.00 962.00 
C 751.38 958.06 752.57 952.73 752.00 948.00
C 752.09 951.57 751.00 957.58 751.00 962.00 Z"/>
</g>
<g fill="#2F8477" fill-opacity="1.00" stroke="None">
<path d="
M 1100.00 1047.00 
C 1101.78 1050.32 1105.55 1052.25 1109.00 1053.00
C 1120.24 1042.61 1122.15 1026.28 1138.93 1026.93 C 1155.70 1027.57 1171.20 1021.38 1187.00 1020.00 C 1202.79 1018.62 1217.39 1013.81 1231.99 1009.99 C 1246.59 1006.17 1260.60 1001.43 1274.32 996.32 C 1288.05 991.21 1303.71 989.15 1316.77 983.77 C 1329.83 978.39 1340.88 972.45 1351.00 963.00
C 1339.03 970.80 1327.71 978.26 1313.68 982.68 C 1299.65 987.10 1284.16 990.69 1270.02 996.02 C 1255.89 1001.36 1241.38 1005.18 1226.67 1009.67 C 1211.96 1014.17 1194.14 1015.81 1179.01 1019.01 C 1163.87 1022.21 1142.77 1022.03 1128.22 1025.22 C 1113.68 1028.42 1120.62 1059.37 1100.00 1047.00 Z"/>
</g>
<g fill="#273B38" fill-opacity="1.00" stroke="None">
<path d="
M 666.00 1149.00 
C 667.02 1147.91 668.19 1145.88 669.00 1145.00
C 671.95 1137.12 668.17 1124.56 669.00 1116.00 C 669.83 1107.45 668.38 1098.45 662.00 1093.00
C 667.34 1098.78 667.39 1110.91 667.00 1119.00 C 666.61 1127.09 669.47 1141.50 666.00 1149.00 Z"/>
</g>
<g fill="#2F8476" fill-opacity="1.00" stroke="None">
<path d="
M 339.00 1261.00 
C 383.81 1279.23 429.06 1287.99 479.00 1291.00 C 528.94 1294.01 593.40 1292.54 640.98 1284.98 C 688.55 1277.41 738.30 1268.30 782.78 1257.78 C 827.26 1247.26 861.09 1224.30 899.75 1204.75 C 938.42 1185.21 970.19 1166.16 1004.00 1140.00
C 966.29 1160.13 938.35 1185.59 898.23 1203.23 C 858.11 1220.87 827.41 1246.75 782.02 1256.02 C 736.64 1265.30 688.08 1275.63 640.00 1283.00 C 591.92 1290.37 529.40 1290.74 479.00 1289.00 C 428.60 1287.26 385.93 1273.53 339.00 1261.00 Z"/>
</g>
<g fill="#308375" fill-opacity="1.00" stroke="None">
<path d="
M 259.00 1187.00 
C 283.39 1209.55 308.59 1223.11 341.98 1232.02 C 375.36 1240.94 424.37 1245.91 459.93 1241.93 C 495.48 1237.94 527.98 1223.66 559.93 1211.93 C 591.88 1200.19 618.37 1189.34 644.00 1167.00
C 605.70 1193.27 571.53 1205.42 528.07 1222.07 C 484.62 1238.73 427.36 1245.02 380.07 1236.93 C 332.78 1228.84 296.73 1216.78 259.00 1187.00 Z"/>
</g>
<g fill="#386B62" fill-opacity="1.00" stroke="None">
<path d="
M 269.00 1220.00 
C 266.19 1215.66 259.26 1209.31 255.00 1205.00
C 258.67 1210.63 264.07 1215.07 269.00 1220.00 Z"/>
</g>
</svg>