<svg xmlns="http://www.w3.org/2000/svg" xmlns:v="https://svgstorm.com"
viewBox = "0 0 1600 1600"
width="1600"
height="1600">
<g fill="#000000" fill-opacity="0.00" stroke="None">
<path d="
M 0.00 1600.00 
L 1600.00 1600.00
L 1600.00 0.00
L 0.00 0.00
L 0.00 1600.00
M 862.00 425.00 
C 853.66 436.22 840.43 448.09 830.00 456.00
C 821.28 462.62 812.16 469.28 803.00 475.00
C 841.87 478.51 886.62 470.51 923.67 463.67 C 960.72 456.83 986.70 440.65 1017.00 420.00
C 1020.01 417.19 1023.91 412.33 1028.00 411.00
C 1037.59 407.87 1033.93 425.78 1031.07 431.07 C 1028.21 436.37 1024.58 446.36 1019.00 450.00
C 1018.88 450.47 1019.00 451.00 1019.00 451.00
C 1009.97 476.45 1019.80 509.51 1040.75 526.25 C 1061.70 543.00 1085.97 551.37 1113.02 557.98 C 1140.08 564.58 1180.04 564.01 1209.00 564.00
C 1210.66 564.00 1212.34 564.08 1214.00 564.00
C 1216.57 563.87 1218.47 563.18 1221.00 563.00
C 1221.78 562.94 1224.35 562.61 1225.00 563.00
C 1232.95 561.58 1238.60 548.79 1246.00 544.00
C 1247.86 541.58 1249.08 538.54 1251.00 536.00
C 1253.57 532.62 1257.09 530.45 1259.00 527.00
C 1262.64 526.59 1265.03 530.57 1267.00 533.00
C 1272.64 551.85 1255.31 566.85 1253.00 583.00
C 1252.00 589.98 1253.18 597.08 1252.00 604.00 C 1250.82 610.92 1250.17 617.79 1250.00 625.00 C 1249.83 632.21 1248.59 638.80 1248.00 646.00 C 1247.42 653.21 1248.33 661.10 1248.98 668.02 C 1249.62 674.95 1250.12 682.25 1250.99 689.01 C 1251.86 695.77 1252.68 701.64 1253.78 708.22 C 1254.88 714.80 1254.71 722.60 1256.00 729.00 C 1257.29 735.40 1259.13 741.69 1259.98 748.02 C 1260.83 754.35 1263.62 759.52 1265.77 765.23 C 1267.93 770.94 1269.27 776.53 1272.30 781.70 C 1275.33 786.87 1276.80 791.32 1280.30 795.70 C 1283.80 800.08 1287.31 803.84 1290.75 808.25 C 1294.19 812.65 1299.04 815.58 1303.08 818.92 C 1307.12 822.25 1311.51 825.79 1316.08 828.92 C 1320.65 832.05 1325.52 834.81 1330.08 837.92 C 1334.63 841.04 1339.18 843.55 1344.03 845.97 C 1348.87 848.40 1354.25 851.44 1359.08 853.92 C 1363.90 856.41 1368.34 860.69 1373.23 862.77 C 1378.12 864.85 1383.26 870.07 1388.69 870.31 C 1394.13 870.54 1399.52 877.66 1404.00 878.00
C 1413.23 870.79 1415.97 870.52 1428.02 866.02 C 1440.07 861.53 1438.19 876.67 1432.00 885.00
C 1429.72 888.06 1425.56 893.52 1422.00 895.00
C 1420.47 902.73 1409.17 907.14 1405.23 914.23 C 1401.29 921.32 1392.24 925.30 1387.25 932.25 C 1382.25 939.20 1374.23 943.24 1368.25 949.25 C 1362.27 955.26 1354.32 960.80 1348.00 966.00
C 1340.57 972.10 1333.75 976.56 1324.92 980.92 C 1316.09 985.28 1305.85 987.75 1296.00 990.00 C 1286.14 992.24 1276.70 996.87 1266.92 999.92 C 1257.15 1002.98 1248.19 1005.64 1238.31 1009.31 C 1228.42 1012.97 1218.29 1013.69 1207.78 1016.78 C 1197.26 1019.87 1185.59 1021.46 1174.00 1022.00 C 1162.41 1022.54 1153.94 1029.27 1141.00 1027.00 C 1128.06 1024.73 1123.81 1035.19 1118.00 1043.00
C 1111.37 1051.92 1104.19 1056.44 1096.00 1046.00
C 1075.69 1083.57 1037.51 1115.55 1004.00 1141.00
C 972.34 1164.31 943.84 1183.06 907.77 1200.77 C 871.70 1218.48 842.71 1239.57 802.93 1251.93 C 763.15 1264.28 718.48 1271.90 675.00 1280.00 C 631.52 1288.10 580.73 1293.88 534.00 1293.00 C 487.27 1292.11 435.43 1291.37 392.00 1278.00
C 370.27 1276.99 349.61 1264.68 329.32 1258.68 C 309.04 1252.68 293.55 1240.31 277.00 1228.00
C 268.24 1221.48 261.08 1214.52 255.00 1206.00
C 254.05 1204.67 252.95 1203.52 252.00 1202.00
C 248.20 1195.94 245.46 1193.36 246.00 1185.00 C 246.54 1176.64 254.71 1182.33 259.00 1186.00
C 260.88 1187.61 262.53 1189.05 264.00 1191.00
C 288.01 1211.93 315.82 1221.20 347.01 1229.99 C 378.20 1238.78 425.36 1242.23 459.07 1239.07 C 492.79 1235.92 523.49 1221.81 554.08 1211.08 C 584.67 1200.35 610.40 1189.62 637.00 1171.00
C 647.12 1163.91 656.42 1155.37 666.00 1148.00
C 668.44 1141.04 665.83 1130.51 666.00 1123.00 C 666.17 1115.49 667.13 1103.62 664.00 1097.00
C 654.60 1090.51 655.07 1082.88 662.92 1075.92 C 670.77 1068.95 670.50 1060.39 677.00 1053.00
C 685.55 1033.42 694.40 1004.57 682.07 983.93 C 669.75 963.28 637.20 972.20 620.75 983.75 C 604.31 995.31 580.91 1002.60 562.77 1012.77 C 544.63 1022.95 522.78 1028.75 508.00 1045.00
C 505.27 1044.69 503.41 1042.16 501.00 1041.00
C 497.37 1038.30 493.60 1034.63 491.00 1031.00
C 481.96 1018.34 482.61 1001.80 473.00 989.00
C 467.50 981.68 445.21 973.17 452.77 963.77 C 460.33 954.37 470.77 946.25 478.25 937.25 C 485.74 928.26 496.41 919.89 503.25 910.25 C 510.09 900.61 519.27 892.90 526.77 882.77 C 534.27 872.64 541.78 857.39 531.07 844.93 C 520.37 832.46 536.14 824.98 545.08 817.08 C 554.02 809.19 561.18 797.37 567.00 787.00
C 567.41 786.27 567.62 784.46 568.00 784.00
C 529.71 795.14 493.52 815.41 459.00 837.00
C 448.46 843.59 437.61 850.40 423.98 850.98 C 410.34 851.56 402.74 841.43 394.77 831.23 C 386.79 821.03 372.14 819.91 363.00 813.00
C 361.70 812.02 360.98 811.19 360.00 810.00
C 357.12 807.56 354.85 806.70 353.00 803.00
C 349.18 795.36 348.66 784.71 348.00 776.00 C 347.35 767.29 343.81 754.10 350.00 747.00
C 356.73 739.28 375.03 742.45 383.25 733.25 C 391.47 724.04 398.94 718.57 405.75 708.75 C 412.56 698.94 419.41 691.33 426.77 682.77 C 434.12 674.20 440.59 665.06 447.00 656.00
C 455.30 644.26 462.98 632.15 461.02 617.98 C 459.07 603.80 447.11 584.07 456.00 572.00
C 476.95 543.55 513.96 530.16 538.30 504.30 C 562.63 478.43 580.08 446.91 604.00 420.00
C 617.58 404.73 630.89 389.58 652.01 387.01 C 673.12 384.43 691.90 372.59 712.23 366.23 C 732.56 359.87 753.87 353.16 774.00 346.00
C 790.59 340.10 803.29 329.03 817.70 319.70 C 832.10 310.36 841.19 296.66 851.30 282.30 C 861.42 267.95 863.14 246.20 871.00 231.00
C 875.57 222.16 881.47 240.23 882.93 248.07 C 884.38 255.92 888.46 268.63 889.99 278.01 C 891.52 287.38 893.39 300.65 894.00 311.00 C 894.60 321.35 895.60 336.45 895.00 347.00 C 894.40 357.55 892.33 368.25 888.23 377.23 C 884.13 386.21 881.52 394.49 876.69 402.69 C 871.87 410.90 867.60 417.47 862.00 425.00 Z"/>
</g>
<g fill="#308C7D" fill-opacity="0.77" stroke="None">
<path d="
M 871.00 231.00 
C 870.39 231.63 873.91 230.82 874.00 230.00
C 886.73 262.61 890.81 300.39 892.00 336.00 C 893.19 371.61 877.33 399.28 858.00 427.00
C 859.82 427.55 860.47 425.25 862.00 425.00
C 867.60 417.47 871.87 410.90 876.69 402.69 C 881.52 394.49 884.13 386.21 888.23 377.23 C 892.33 368.25 894.40 357.55 895.00 347.00 C 895.60 336.45 894.60 321.35 894.00 311.00 C 893.39 300.65 891.52 287.38 889.99 278.01 C 888.46 268.63 884.38 255.92 882.93 248.07 C 881.47 240.23 875.57 222.16 871.00 231.00 Z"/>
</g>
<g fill="#28A691" fill-opacity="1.00" stroke="None">
<path d="
M 871.00 231.00 
C 863.14 246.20 861.42 267.95 851.30 282.30 C 841.19 296.66 832.10 310.36 817.70 319.70 C 803.29 329.03 790.59 340.10 774.00 346.00
C 757.80 357.11 734.76 362.90 714.78 368.78 C 694.80 374.65 675.37 387.94 654.00 390.00 C 632.63 392.06 619.38 408.46 604.00 420.00
C 580.08 446.91 562.63 478.43 538.30 504.30 C 513.96 530.16 476.95 543.55 456.00 572.00
C 452.10 586.30 462.21 604.18 463.99 619.01 C 465.78 633.84 456.86 647.56 447.00 656.00
C 440.59 665.06 434.12 674.20 426.77 682.77 C 419.41 691.33 412.56 698.94 405.75 708.75 C 398.94 718.57 391.47 724.04 383.25 733.25 C 375.03 742.45 356.73 739.28 350.00 747.00
C 345.88 757.00 352.70 773.02 351.99 784.01 C 351.29 795.00 356.79 806.25 363.00 813.00
C 372.14 819.91 386.79 821.03 394.77 831.23 C 402.74 841.43 410.34 851.56 423.98 850.98 C 437.61 850.40 448.46 843.59 459.00 837.00
C 473.52 819.43 499.25 809.99 521.07 800.07 C 542.89 790.16 570.62 778.57 593.00 773.00
C 600.96 769.40 608.87 768.00 618.00 768.00
C 621.24 767.69 624.76 767.54 628.00 768.00
C 637.87 768.38 647.06 771.52 656.02 774.98 C 664.99 778.43 671.75 782.38 680.70 786.31 C 689.64 790.23 694.27 795.28 704.08 798.92 C 713.88 802.57 714.57 812.57 716.78 822.22 C 718.98 831.87 722.08 840.18 724.93 850.07 C 727.78 859.96 726.11 873.28 727.00 884.00 C 727.89 894.72 724.30 906.38 723.22 916.22 C 722.14 926.07 717.38 938.25 724.77 946.23 C 732.16 954.21 744.44 944.80 752.00 943.00
C 752.00 944.67 752.00 946.33 752.00 948.00
C 752.57 952.73 751.38 958.06 751.00 962.00
C 751.00 1029.25 724.83 1082.89 682.00 1133.00
C 678.06 1137.60 672.94 1140.90 669.00 1145.00
C 667.85 1146.20 667.46 1146.88 666.00 1148.00
C 656.42 1155.37 647.12 1163.91 637.00 1171.00
C 630.40 1179.67 618.36 1184.73 607.31 1191.31 C 596.25 1197.88 584.63 1203.73 571.92 1207.92 C 559.22 1212.12 546.35 1217.59 533.32 1222.32 C 520.29 1227.06 508.13 1231.74 493.98 1234.98 C 479.83 1238.21 464.30 1241.86 449.00 1243.00 C 433.70 1244.14 413.67 1242.88 398.78 1241.22 C 383.89 1239.56 366.43 1237.59 352.33 1234.67 C 338.22 1231.75 326.04 1226.70 313.31 1221.70 C 300.57 1216.69 290.28 1209.74 279.00 1205.00
C 273.50 1202.69 268.10 1197.82 266.00 1194.00
C 265.22 1193.15 264.67 1191.88 264.00 1191.00
C 262.53 1189.05 260.88 1187.61 259.00 1186.00
C 259.93 1186.36 248.91 1182.36 249.23 1187.23 C 249.55 1192.11 250.83 1198.60 252.00 1202.00
C 252.95 1203.52 254.05 1204.67 255.00 1206.00
C 255.95 1206.55 262.27 1212.08 266.25 1215.75 C 270.23 1219.42 274.66 1224.88 277.00 1228.00
C 293.55 1240.31 309.04 1252.68 329.32 1258.68 C 349.61 1264.68 370.27 1276.99 392.00 1278.00
C 411.48 1278.91 430.92 1284.59 452.00 1286.00 C 473.08 1287.40 496.95 1290.93 519.00 1290.00 C 541.05 1289.07 566.65 1291.28 588.00 1289.00 C 609.35 1286.72 630.54 1284.07 651.07 1281.07 C 671.61 1278.08 692.48 1275.13 712.00 1271.00 C 731.53 1266.88 750.87 1262.47 769.67 1258.67 C 788.47 1254.87 807.33 1249.54 824.08 1242.08 C 840.82 1234.61 854.63 1225.34 870.70 1217.69 C 886.76 1210.05 900.76 1201.25 916.23 1193.23 C 931.70 1185.20 947.22 1176.68 961.70 1167.70 C 976.18 1158.71 989.58 1146.04 1004.00 1141.00
C 1037.51 1115.55 1075.69 1083.57 1096.00 1046.00
C 1104.19 1056.44 1111.37 1051.92 1118.00 1043.00
C 1121.70 1031.72 1126.42 1022.63 1141.00 1024.00 C 1155.58 1025.37 1166.52 1019.11 1180.00 1019.00 C 1193.49 1018.90 1205.12 1013.30 1217.67 1011.67 C 1230.22 1010.04 1239.98 1004.67 1251.68 1001.68 C 1263.38 998.68 1273.91 993.47 1285.22 990.22 C 1296.54 986.97 1308.61 984.41 1319.22 980.22 C 1329.84 976.04 1339.01 969.24 1348.00 966.00
C 1354.32 960.80 1362.27 955.26 1368.25 949.25 C 1374.23 943.24 1382.25 939.20 1387.25 932.25 C 1392.24 925.30 1401.29 921.32 1405.23 914.23 C 1409.17 907.14 1420.47 902.73 1422.00 895.00
C 1422.10 894.52 1422.00 894.00 1422.00 894.00
C 1425.99 885.86 1430.79 887.37 1433.31 877.31 C 1435.82 867.24 1424.49 868.64 1417.92 872.92 C 1411.35 877.21 1405.95 879.82 1399.00 883.00
C 1369.85 896.33 1346.52 908.88 1315.77 920.77 C 1285.02 932.66 1241.07 935.59 1207.00 932.00 C 1172.92 928.41 1140.28 924.44 1112.77 904.23 C 1085.26 884.02 1076.16 853.66 1072.67 822.33 C 1069.18 791.00 1041.70 772.19 1026.00 747.00
C 1073.41 738.81 1127.67 723.31 1161.75 686.75 C 1195.83 650.20 1225.17 620.28 1251.00 580.00
C 1254.15 574.46 1255.35 569.40 1258.77 563.77 C 1262.20 558.14 1261.20 549.88 1263.99 543.99 C 1266.78 538.10 1263.05 526.64 1257.25 532.25 C 1251.45 537.86 1250.96 540.79 1246.00 544.00
C 1238.60 548.79 1232.95 561.58 1225.00 563.00
C 1224.91 563.02 1225.00 564.00 1225.00 564.00
C 1227.17 567.08 1213.76 573.49 1209.92 576.92 C 1206.08 580.35 1197.35 586.31 1192.25 590.25 C 1187.15 594.18 1178.90 598.20 1172.92 601.92 C 1166.95 605.65 1160.02 609.90 1153.75 613.75 C 1147.48 617.61 1141.56 621.89 1135.30 626.30 C 1129.04 630.72 1121.89 633.35 1114.78 636.78 C 1107.66 640.20 1100.15 641.65 1092.33 644.33 C 1084.51 647.00 1075.90 648.73 1067.33 650.33 C 1058.76 651.93 1049.07 653.11 1040.00 654.00 C 1030.93 654.89 1021.33 656.42 1012.00 657.00 C 1002.67 657.58 992.51 659.08 983.00 659.00 C 973.49 658.92 962.60 658.44 954.00 657.00 C 945.39 655.56 938.99 652.02 935.08 644.92 C 931.17 637.82 926.60 633.96 922.25 627.75 C 917.90 621.54 913.45 616.40 907.75 611.25 C 902.05 606.09 896.91 601.58 890.77 597.23 C 884.63 592.88 879.09 588.09 872.30 584.70 C 865.52 581.30 858.06 577.70 850.92 575.08 C 843.78 572.45 838.20 567.53 833.75 561.25 C 829.31 554.97 825.57 548.78 822.00 542.00
C 898.49 547.37 968.83 506.53 1019.00 451.00
C 1019.00 451.00 1018.88 450.47 1019.00 450.00
C 1022.06 438.47 1037.26 423.92 1028.00 411.00
C 1023.91 412.33 1020.01 417.19 1017.00 420.00
C 1007.69 433.19 991.44 438.93 976.25 448.25 C 961.06 457.58 942.06 462.26 923.78 466.78 C 905.50 471.30 881.63 473.44 862.00 476.00 C 842.37 478.56 817.11 482.19 798.00 475.00
C 808.22 469.17 820.47 460.05 830.00 456.00
C 840.43 448.09 853.66 436.22 862.00 425.00
C 860.47 425.25 859.82 427.55 858.00 427.00
C 877.33 399.28 893.19 371.61 892.00 336.00 C 890.81 300.39 886.73 262.61 874.00 230.00
C 873.91 230.82 870.39 231.63 871.00 231.00
M 593.00 571.00 
C 589.35 579.21 583.89 585.27 579.23 593.23 C 574.57 601.19 568.09 605.87 563.25 614.25 C 558.41 622.63 551.47 625.24 547.23 635.23 C 542.99 645.22 534.59 637.64 527.92 631.08 C 521.25 624.52 513.69 620.48 509.00 613.00
C 539.87 606.27 567.79 590.27 593.00 571.00 Z"/>
</g>
<g fill="#318C7E" fill-opacity="0.71" stroke="None">
<path d="
M 604.00 420.00 
C 619.38 408.46 632.63 392.06 654.00 390.00 C 675.37 387.94 694.80 374.65 714.78 368.78 C 734.76 362.90 757.80 357.11 774.00 346.00
C 753.87 353.16 732.56 359.87 712.23 366.23 C 691.90 372.59 673.12 384.43 652.01 387.01 C 630.89 389.58 617.58 404.73 604.00 420.00 Z"/>
</g>
<g fill="#318B7C" fill-opacity="0.69" stroke="None">
<path d="
M 1028.00 411.00 
C 1037.26 423.92 1022.06 438.47 1019.00 450.00
C 1024.58 446.36 1028.21 436.37 1031.07 431.07 C 1033.93 425.78 1037.59 407.87 1028.00 411.00 Z"/>
</g>
<g fill="#318B7C" fill-opacity="0.75" stroke="None">
<path d="
M 830.00 456.00 
C 820.47 460.05 808.22 469.17 798.00 475.00
C 817.11 482.19 842.37 478.56 862.00 476.00 C 881.63 473.44 905.50 471.30 923.78 466.78 C 942.06 462.26 961.06 457.58 976.25 448.25 C 991.44 438.93 1007.69 433.19 1017.00 420.00
C 986.70 440.65 960.72 456.83 923.67 463.67 C 886.62 470.51 841.87 478.51 803.00 475.00
C 812.16 469.28 821.28 462.62 830.00 456.00 Z"/>
</g>
<g fill="#3E5E59" fill-opacity="1.00" stroke="None">
<path d="
M 1225.00 564.00 
C 1222.85 566.72 1222.37 563.19 1221.00 563.00
C 1218.47 563.18 1216.57 563.87 1214.00 564.00
C 1213.73 564.11 1215.66 565.25 1212.96 565.97 C 1210.26 566.70 1209.76 564.16 1209.00 564.00
C 1180.04 564.01 1140.08 564.58 1113.02 557.98 C 1085.97 551.37 1061.70 543.00 1040.75 526.25 C 1019.80 509.51 1009.97 476.45 1019.00 451.00
C 968.83 506.53 898.49 547.37 822.00 542.00
C 825.57 548.78 829.31 554.97 833.75 561.25 C 838.20 567.53 843.78 572.45 850.92 575.08 C 858.06 577.70 865.52 581.30 872.30 584.70 C 879.09 588.09 884.63 592.88 890.77 597.23 C 896.91 601.58 902.05 606.09 907.75 611.25 C 913.45 616.40 917.90 621.54 922.25 627.75 C 926.60 633.96 931.17 637.82 935.08 644.92 C 938.99 652.02 945.39 655.56 954.00 657.00 C 962.60 658.44 973.49 658.92 983.00 659.00 C 992.51 659.08 1002.67 657.58 1012.00 657.00 C 1021.33 656.42 1030.93 654.89 1040.00 654.00 C 1049.07 653.11 1058.76 651.93 1067.33 650.33 C 1075.90 648.73 1084.51 647.00 1092.33 644.33 C 1100.15 641.65 1107.66 640.20 1114.78 636.78 C 1121.89 633.35 1129.04 630.72 1135.30 626.30 C 1141.56 621.89 1147.48 617.61 1153.75 613.75 C 1160.02 609.90 1166.95 605.65 1172.92 601.92 C 1178.90 598.20 1187.15 594.18 1192.25 590.25 C 1197.35 586.31 1206.08 580.35 1209.92 576.92 C 1213.76 573.49 1227.17 567.08 1225.00 564.00 Z"/>
</g>
<g fill="#31877F" fill-opacity="0.22" stroke="None">
<path d="
M 1251.00 536.00 
C 1253.51 533.68 1258.49 531.88 1260.00 528.00
C 1263.15 527.96 1264.30 532.02 1267.00 533.00
C 1265.03 530.57 1262.64 526.59 1259.00 527.00
C 1257.09 530.45 1253.57 532.62 1251.00 536.00 Z"/>
</g>
<g fill="#358D7E" fill-opacity="0.76" stroke="None">
<path d="
M 1251.00 536.00 
C 1249.08 538.54 1247.86 541.58 1246.00 544.00
C 1250.96 540.79 1251.45 537.86 1257.25 532.25 C 1263.05 526.64 1266.78 538.10 1263.99 543.99 C 1261.20 549.88 1262.20 558.14 1258.77 563.77 C 1255.35 569.40 1254.15 574.46 1251.00 580.00
C 1251.12 580.67 1252.75 581.98 1253.00 583.00
C 1255.31 566.85 1272.64 551.85 1267.00 533.00
C 1264.30 532.02 1263.15 527.96 1260.00 528.00
C 1258.49 531.88 1253.51 533.68 1251.00 536.00 Z"/>
</g>
<g fill="#42635A" fill-opacity="0.45" stroke="None">
<path d="
M 1225.00 564.00 
C 1225.00 564.00 1224.91 563.02 1225.00 563.00
C 1224.35 562.61 1221.78 562.94 1221.00 563.00
C 1222.37 563.19 1222.85 566.72 1225.00 564.00 Z"/>
</g>
<g fill="#4F7674" fill-opacity="0.36" stroke="None">
<path d="
M 1214.00 564.00 
C 1212.34 564.08 1210.66 564.00 1209.00 564.00
C 1209.76 564.16 1210.26 566.70 1212.96 565.97 C 1215.66 565.25 1213.73 564.11 1214.00 564.00 Z"/>
</g>
<g fill="#35423A" fill-opacity="1.00" stroke="None">
<path d="
M 593.00 571.00 
C 567.79 590.27 539.87 606.27 509.00 613.00
C 513.69 620.48 521.25 624.52 527.92 631.08 C 534.59 637.64 542.99 645.22 547.23 635.23 C 551.47 625.24 558.41 622.63 563.25 614.25 C 568.09 605.87 574.57 601.19 579.23 593.23 C 583.89 585.27 589.35 579.21 593.00 571.00 Z"/>
</g>
<g fill="#328B7D" fill-opacity="0.72" stroke="None">
<path d="
M 447.00 656.00 
C 456.86 647.56 465.78 633.84 463.99 619.01 C 462.21 604.18 452.10 586.30 456.00 572.00
C 447.11 584.07 459.07 603.80 461.02 617.98 C 462.98 632.15 455.30 644.26 447.00 656.00 Z"/>
</g>
<g fill="#3F5E59" fill-opacity="1.00" stroke="None">
<path d="
M 1399.00 883.00 
C 1400.80 881.88 1402.33 879.30 1404.00 878.00
C 1399.52 877.66 1394.13 870.54 1388.69 870.31 C 1383.26 870.07 1378.12 864.85 1373.23 862.77 C 1368.34 860.69 1363.90 856.41 1359.08 853.92 C 1354.25 851.44 1348.87 848.40 1344.03 845.97 C 1339.18 843.55 1334.63 841.04 1330.08 837.92 C 1325.52 834.81 1320.65 832.05 1316.08 828.92 C 1311.51 825.79 1307.12 822.25 1303.08 818.92 C 1299.04 815.58 1294.19 812.65 1290.75 808.25 C 1287.31 803.84 1283.80 800.08 1280.30 795.70 C 1276.80 791.32 1275.33 786.87 1272.30 781.70 C 1269.27 776.53 1267.93 770.94 1265.77 765.23 C 1263.62 759.52 1260.83 754.35 1259.98 748.02 C 1259.13 741.69 1257.29 735.40 1256.00 729.00 C 1254.71 722.60 1254.88 714.80 1253.78 708.22 C 1252.68 701.64 1251.86 695.77 1250.99 689.01 C 1250.12 682.25 1249.62 674.95 1248.98 668.02 C 1248.33 661.10 1247.42 653.21 1248.00 646.00 C 1248.59 638.80 1249.83 632.21 1250.00 625.00 C 1250.17 617.79 1250.82 610.92 1252.00 604.00 C 1253.18 597.08 1252.00 589.98 1253.00 583.00
C 1252.75 581.98 1251.12 580.67 1251.00 580.00
C 1225.17 620.28 1195.83 650.20 1161.75 686.75 C 1127.67 723.31 1073.41 738.81 1026.00 747.00
C 1041.70 772.19 1069.18 791.00 1072.67 822.33 C 1076.16 853.66 1085.26 884.02 1112.77 904.23 C 1140.28 924.44 1172.92 928.41 1207.00 932.00 C 1241.07 935.59 1285.02 932.66 1315.77 920.77 C 1346.52 908.88 1369.85 896.33 1399.00 883.00 Z"/>
</g>
<g fill="#318B7C" fill-opacity="0.78" stroke="None">
<path d="
M 353.00 803.00 
C 354.74 805.39 358.06 807.67 360.00 810.00
C 360.98 811.19 361.70 812.02 363.00 813.00
C 356.79 806.25 351.29 795.00 351.99 784.01 C 352.70 773.02 345.88 757.00 350.00 747.00
C 343.81 754.10 347.35 767.29 348.00 776.00 C 348.66 784.71 349.18 795.36 353.00 803.00 Z"/>
</g>
<g fill="#276C60" fill-opacity="1.00" stroke="None">
<path d="
M 618.00 768.00 
C 621.32 768.00 624.68 767.87 628.00 768.00
C 624.76 767.54 621.24 767.69 618.00 768.00 Z"/>
</g>
<g fill="#253734" fill-opacity="1.00" stroke="None">
<path d="
M 593.00 773.00 
C 588.54 775.02 583.65 777.20 579.00 779.00
C 572.08 784.41 569.88 794.90 564.23 801.23 C 558.58 807.56 555.15 816.67 547.75 821.75 C 540.35 826.84 529.99 832.51 535.30 840.70 C 540.62 848.89 545.05 860.41 542.07 869.07 C 539.10 877.74 531.88 883.68 526.75 890.75 C 521.62 897.82 514.00 904.28 509.25 911.25 C 504.49 918.21 496.99 924.72 491.75 930.75 C 486.51 936.78 477.12 943.74 473.75 949.75 C 470.38 955.76 453.78 963.66 458.26 969.74 C 462.73 975.83 473.63 979.50 477.92 987.08 C 482.20 994.67 489.34 1003.10 490.33 1011.67 C 491.32 1020.25 496.05 1032.61 503.75 1036.25 C 511.45 1039.89 517.73 1027.84 525.75 1024.75 C 533.77 1021.65 542.58 1015.16 551.08 1012.08 C 559.57 1008.99 567.19 1002.96 575.74 999.74 C 584.29 996.53 592.50 991.51 601.08 988.08 C 609.66 984.65 616.55 977.89 625.23 974.23 C 633.91 970.57 642.49 966.00 652.07 964.07 C 661.65 962.15 670.99 969.00 679.25 973.75 C 687.50 978.51 691.49 988.51 692.93 998.07 C 694.36 1007.63 694.12 1021.60 691.07 1031.07 C 688.02 1040.55 684.75 1048.41 680.68 1057.68 C 676.61 1066.94 672.60 1072.42 665.70 1080.70 C 658.80 1088.98 671.53 1094.13 671.00 1105.00 C 670.47 1115.87 673.52 1129.74 673.00 1141.00
C 676.45 1138.95 678.58 1135.00 682.00 1133.00
C 724.83 1082.89 751.00 1029.25 751.00 962.00
C 751.00 957.58 752.09 951.57 752.00 948.00
C 752.00 946.33 752.00 944.67 752.00 943.00
C 744.44 944.80 732.16 954.21 724.77 946.23 C 717.38 938.25 722.14 926.07 723.22 916.22 C 724.30 906.38 727.89 894.72 727.00 884.00 C 726.11 873.28 727.78 859.96 724.93 850.07 C 722.08 840.18 718.98 831.87 716.78 822.22 C 714.57 812.57 713.88 802.57 704.08 798.92 C 694.27 795.28 689.64 790.23 680.70 786.31 C 671.75 782.38 664.99 778.43 656.02 774.98 C 647.06 771.52 637.87 768.38 628.00 768.00
C 624.68 767.87 621.32 768.00 618.00 768.00
C 608.87 768.00 600.96 769.40 593.00 773.00
M 641.00 807.00 
C 636.66 815.60 628.61 823.28 624.08 832.08 C 619.55 840.87 612.86 850.02 608.70 858.70 C 604.54 867.38 597.58 881.99 590.75 871.25 C 583.92 860.51 578.14 856.61 573.00 846.00
C 595.56 833.80 617.45 817.17 641.00 807.00 Z"/>
</g>
<g fill="#318B7D" fill-opacity="0.73" stroke="None">
<path d="
M 459.00 837.00 
C 493.52 815.41 529.71 795.14 568.00 784.00
C 568.39 783.89 569.73 783.22 570.00 783.00
C 572.90 780.63 575.50 780.36 579.00 779.00
C 583.65 777.20 588.54 775.02 593.00 773.00
C 570.62 778.57 542.89 790.16 521.07 800.07 C 499.25 809.99 473.52 819.43 459.00 837.00 Z"/>
</g>
<g fill="#385450" fill-opacity="0.93" stroke="None">
<path d="
M 570.00 783.00 
C 569.87 783.16 567.86 786.09 567.00 787.00
C 561.18 797.37 554.02 809.19 545.08 817.08 C 536.14 824.98 520.37 832.46 531.07 844.93 C 541.78 857.39 534.27 872.64 526.77 882.77 C 519.27 892.90 510.09 900.61 503.25 910.25 C 496.41 919.89 485.74 928.26 478.25 937.25 C 470.77 946.25 460.33 954.37 452.77 963.77 C 445.21 973.17 467.50 981.68 473.00 989.00
C 474.97 990.54 477.85 992.48 479.77 996.23 C 481.69 999.98 484.57 1003.13 485.78 1007.22 C 486.99 1011.32 486.47 1016.60 488.98 1020.02 C 491.48 1023.45 490.81 1030.30 491.00 1031.00
C 493.60 1034.63 497.37 1038.30 501.00 1041.00
C 500.33 1040.14 499.94 1039.11 500.00 1038.00
C 511.03 1046.05 520.18 1030.33 531.70 1025.69 C 543.21 1021.06 554.45 1013.73 566.23 1008.23 C 578.01 1002.73 589.77 997.94 601.74 991.74 C 613.72 985.55 623.54 979.63 636.23 973.23 C 648.92 966.83 663.03 967.12 675.25 975.75 C 687.46 984.39 691.11 998.11 690.00 1013.00 C 688.89 1027.89 685.70 1042.16 677.00 1053.00
C 670.50 1060.39 670.77 1068.95 662.92 1075.92 C 655.07 1082.88 654.60 1090.51 664.00 1097.00
C 668.24 1099.93 669.96 1110.20 669.00 1118.00 C 668.04 1125.80 672.06 1137.83 669.00 1145.00
C 672.94 1140.90 678.06 1137.60 682.00 1133.00
C 678.58 1135.00 676.45 1138.95 673.00 1141.00
C 673.52 1129.74 670.47 1115.87 671.00 1105.00 C 671.53 1094.13 658.80 1088.98 665.70 1080.70 C 672.60 1072.42 676.61 1066.94 680.68 1057.68 C 684.75 1048.41 688.02 1040.55 691.07 1031.07 C 694.12 1021.60 694.36 1007.63 692.93 998.07 C 691.49 988.51 687.50 978.51 679.25 973.75 C 670.99 969.00 661.65 962.15 652.07 964.07 C 642.49 966.00 633.91 970.57 625.23 974.23 C 616.55 977.89 609.66 984.65 601.08 988.08 C 592.50 991.51 584.29 996.53 575.74 999.74 C 567.19 1002.96 559.57 1008.99 551.08 1012.08 C 542.58 1015.16 533.77 1021.65 525.75 1024.75 C 517.73 1027.84 511.45 1039.89 503.75 1036.25 C 496.05 1032.61 491.32 1020.25 490.33 1011.67 C 489.34 1003.10 482.20 994.67 477.92 987.08 C 473.63 979.50 462.73 975.83 458.26 969.74 C 453.78 963.66 470.38 955.76 473.75 949.75 C 477.12 943.74 486.51 936.78 491.75 930.75 C 496.99 924.72 504.49 918.21 509.25 911.25 C 514.00 904.28 521.62 897.82 526.75 890.75 C 531.88 883.68 539.10 877.74 542.07 869.07 C 545.05 860.41 540.62 848.89 535.30 840.70 C 529.99 832.51 540.35 826.84 547.75 821.75 C 555.15 816.67 558.58 807.56 564.23 801.23 C 569.88 794.90 572.08 784.41 579.00 779.00
C 575.50 780.36 572.90 780.63 570.00 783.00 Z"/>
</g>
<g fill="#293A37" fill-opacity="0.29" stroke="None">
<path d="
M 568.00 784.00 
C 567.62 784.46 567.41 786.27 567.00 787.00
C 567.86 786.09 569.87 783.16 570.00 783.00
C 569.73 783.22 568.39 783.89 568.00 784.00 Z"/>
</g>
<g fill="#318B7B" fill-opacity="0.35" stroke="None">
<path d="
M 360.00 810.00 
C 358.06 807.67 354.74 805.39 353.00 803.00
C 354.85 806.70 357.12 807.56 360.00 810.00 Z"/>
</g>
<g fill="#28A590" fill-opacity="1.00" stroke="None">
<path d="
M 641.00 807.00 
C 617.45 817.17 595.56 833.80 573.00 846.00
C 578.14 856.61 583.92 860.51 590.75 871.25 C 597.58 881.99 604.54 867.38 608.70 858.70 C 612.86 850.02 619.55 840.87 624.08 832.08 C 628.61 823.28 636.66 815.60 641.00 807.00 Z"/>
</g>
<g fill="#308B7D" fill-opacity="0.78" stroke="None">
<path d="
M 1404.00 878.00 
C 1402.33 879.30 1400.80 881.88 1399.00 883.00
C 1405.95 879.82 1411.35 877.21 1417.92 872.92 C 1424.49 868.64 1435.82 867.24 1433.31 877.31 C 1430.79 887.37 1425.99 885.86 1422.00 894.00
C 1425.30 891.67 1429.41 887.98 1432.00 885.00
C 1438.19 876.67 1440.07 861.53 1428.02 866.02 C 1415.97 870.52 1413.23 870.79 1404.00 878.00 Z"/>
</g>
<g fill="#338F7D" fill-opacity="0.18" stroke="None">
<path d="
M 1422.00 894.00 
C 1422.00 894.00 1422.10 894.52 1422.00 895.00
C 1425.56 893.52 1429.72 888.06 1432.00 885.00
C 1429.41 887.98 1425.30 891.67 1422.00 894.00 Z"/>
</g>
<g fill="#286D62" fill-opacity="1.00" stroke="None">
<path d="
M 751.00 962.00 
C 751.38 958.06 752.57 952.73 752.00 948.00
C 752.09 951.57 751.00 957.58 751.00 962.00 Z"/>
</g>
<g fill="#328C7D" fill-opacity="0.75" stroke="None">
<path d="
M 1118.00 1043.00 
C 1123.81 1035.19 1128.06 1024.73 1141.00 1027.00 C 1153.94 1029.27 1162.41 1022.54 1174.00 1022.00 C 1185.59 1021.46 1197.26 1019.87 1207.78 1016.78 C 1218.29 1013.69 1228.42 1012.97 1238.31 1009.31 C 1248.19 1005.64 1257.15 1002.98 1266.92 999.92 C 1276.70 996.87 1286.14 992.24 1296.00 990.00 C 1305.85 987.75 1316.09 985.28 1324.92 980.92 C 1333.75 976.56 1340.57 972.10 1348.00 966.00
C 1339.01 969.24 1329.84 976.04 1319.22 980.22 C 1308.61 984.41 1296.54 986.97 1285.22 990.22 C 1273.91 993.47 1263.38 998.68 1251.68 1001.68 C 1239.98 1004.67 1230.22 1010.04 1217.67 1011.67 C 1205.12 1013.30 1193.49 1018.90 1180.00 1019.00 C 1166.52 1019.11 1155.58 1025.37 1141.00 1024.00 C 1126.42 1022.63 1121.70 1031.72 1118.00 1043.00 Z"/>
</g>
<g fill="#273A37" fill-opacity="0.74" stroke="None">
<path d="
M 501.00 1041.00 
C 503.41 1042.16 505.27 1044.69 508.00 1045.00
C 522.78 1028.75 544.63 1022.95 562.77 1012.77 C 580.91 1002.60 604.31 995.31 620.75 983.75 C 637.20 972.20 669.75 963.28 682.07 983.93 C 694.40 1004.57 685.55 1033.42 677.00 1053.00
C 685.70 1042.16 688.89 1027.89 690.00 1013.00 C 691.11 998.11 687.46 984.39 675.25 975.75 C 663.03 967.12 648.92 966.83 636.23 973.23 C 623.54 979.63 613.72 985.55 601.74 991.74 C 589.77 997.94 578.01 1002.73 566.23 1008.23 C 554.45 1013.73 543.21 1021.06 531.70 1025.69 C 520.18 1030.33 511.03 1046.05 500.00 1038.00
C 499.94 1039.11 500.33 1040.14 501.00 1041.00 Z"/>
</g>
<g fill="#263A37" fill-opacity="0.73" stroke="None">
<path d="
M 473.00 989.00 
C 482.61 1001.80 481.96 1018.34 491.00 1031.00
C 490.81 1030.30 491.48 1023.45 488.98 1020.02 C 486.47 1016.60 486.99 1011.32 485.78 1007.22 C 484.57 1003.13 481.69 999.98 479.77 996.23 C 477.85 992.48 474.97 990.54 473.00 989.00 Z"/>
</g>
<g fill="#273B37" fill-opacity="0.83" stroke="None">
<path d="
M 664.00 1097.00 
C 667.13 1103.62 666.17 1115.49 666.00 1123.00 C 665.83 1130.51 668.44 1141.04 666.00 1148.00
C 667.46 1146.88 667.85 1146.20 669.00 1145.00
C 672.06 1137.83 668.04 1125.80 669.00 1118.00 C 669.96 1110.20 668.24 1099.93 664.00 1097.00 Z"/>
</g>
<g fill="#318B7D" fill-opacity="0.73" stroke="None">
<path d="
M 392.00 1278.00 
C 435.43 1291.37 487.27 1292.11 534.00 1293.00 C 580.73 1293.88 631.52 1288.10 675.00 1280.00 C 718.48 1271.90 763.15 1264.28 802.93 1251.93 C 842.71 1239.57 871.70 1218.48 907.77 1200.77 C 943.84 1183.06 972.34 1164.31 1004.00 1141.00
C 989.58 1146.04 976.18 1158.71 961.70 1167.70 C 947.22 1176.68 931.70 1185.20 916.23 1193.23 C 900.76 1201.25 886.76 1210.05 870.70 1217.69 C 854.63 1225.34 840.82 1234.61 824.08 1242.08 C 807.33 1249.54 788.47 1254.87 769.67 1258.67 C 750.87 1262.47 731.53 1266.88 712.00 1271.00 C 692.48 1275.13 671.61 1278.08 651.07 1281.07 C 630.54 1284.07 609.35 1286.72 588.00 1289.00 C 566.65 1291.28 541.05 1289.07 519.00 1290.00 C 496.95 1290.93 473.08 1287.40 452.00 1286.00 C 430.92 1284.59 411.48 1278.91 392.00 1278.00 Z"/>
</g>
<g fill="#318B7D" fill-opacity="0.75" stroke="None">
<path d="
M 264.00 1191.00 
C 264.67 1191.88 265.22 1193.15 266.00 1194.00
C 269.14 1197.42 277.01 1203.74 279.00 1205.00
C 290.28 1209.74 300.57 1216.69 313.31 1221.70 C 326.04 1226.70 338.22 1231.75 352.33 1234.67 C 366.43 1237.59 383.89 1239.56 398.78 1241.22 C 413.67 1242.88 433.70 1244.14 449.00 1243.00 C 464.30 1241.86 479.83 1238.21 493.98 1234.98 C 508.13 1231.74 520.29 1227.06 533.32 1222.32 C 546.35 1217.59 559.22 1212.12 571.92 1207.92 C 584.63 1203.73 596.25 1197.88 607.31 1191.31 C 618.36 1184.73 630.40 1179.67 637.00 1171.00
C 610.40 1189.62 584.67 1200.35 554.08 1211.08 C 523.49 1221.81 492.79 1235.92 459.07 1239.07 C 425.36 1242.23 378.20 1238.78 347.01 1229.99 C 315.82 1221.20 288.01 1211.93 264.00 1191.00 Z"/>
</g>
<g fill="#308A7C" fill-opacity="0.70" stroke="None">
<path d="
M 252.00 1202.00 
C 250.83 1198.60 249.55 1192.11 249.23 1187.23 C 248.91 1182.36 259.93 1186.36 259.00 1186.00
C 254.71 1182.33 246.54 1176.64 246.00 1185.00 C 245.46 1193.36 248.20 1195.94 252.00 1202.00 Z"/>
</g>
<g fill="#397067" fill-opacity="1.00" stroke="None">
<path d="
M 279.00 1205.00 
C 277.01 1203.74 269.14 1197.42 266.00 1194.00
C 268.10 1197.82 273.50 1202.69 279.00 1205.00 Z"/>
</g>
<g fill="#378375" fill-opacity="0.69" stroke="None">
<path d="
M 255.00 1206.00 
C 261.08 1214.52 268.24 1221.48 277.00 1228.00
C 274.66 1224.88 270.23 1219.42 266.25 1215.75 C 262.27 1212.08 255.95 1206.55 255.00 1206.00 Z"/>
</g>
</svg>